{
    "asset" : {
        "generator" : "Khronos glTF Blender I/O v3.2.43",
        "version" : "2.0"
    },
    "scene" : 0,
    "scenes" : [
        {
            "name" : "Scene",
            "nodes" : [
                8,
                9,
                10,
                11,
                12
            ]
        }
    ],
    "nodes" : [
        {
            "mesh" : 0,
            "name" : "Leaves_LeafColor_0",
            "translation" : [
                0,
                0,
                2.7418136596679688e-06
            ]
        },
        {
            "children" : [
                0
            ],
            "name" : "Leaves",
            "rotation" : [
                -0.7288119196891785,
                -0.13564234972000122,
                -0.03505367413163185,
                0.6702280640602112
            ],
            "scale" : [
                43.8994255065918,
                23.266693115234375,
                3.3255043029785156
            ],
            "translation" : [
                -35.046913146972656,
                103.15547943115234,
                -8.60136604309082
            ]
        },
        {
            "mesh" : 1,
            "name" : "Peach_PeachColor_0"
        },
        {
            "children" : [
                2
            ],
            "name" : "Peach",
            "rotation" : [
                -0.7071068286895752,
                0,
                0,
                0.7071067094802856
            ],
            "scale" : [
                100,
                99.99999237060547,
                99.99999237060547
            ],
            "translation" : [
                0,
                7.62939453125e-06,
                0
            ]
        },
        {
            "mesh" : 2,
            "name" : "stem_StemColor_0"
        },
        {
            "children" : [
                4
            ],
            "name" : "stem",
            "rotation" : [
                -0.7071068286895752,
                0,
                0,
                0.7071067094802856
            ],
            "scale" : [
                4.000000476837158,
                4.000002384185791,
                36.49999237060547
            ],
            "translation" : [
                0,
                84.5774154663086,
                -4.7975993156433105
            ]
        },
        {
            "children" : [
                1,
                3,
                5
            ],
            "name" : "RootNode",
            "translation" : [
                0,
                7.62939453125e-06,
                0
            ]
        },
        {
            "children" : [
                6
            ],
            "name" : "7cd0435decf541e48458c4912d6696d3.fbx",
            "rotation" : [
                0.7071068286895752,
                0,
                0,
                0.7071067094802856
            ],
            "translation" : [
                0,
                0,
                -7.62939453125e-06
            ]
        },
        {
            "children" : [
                7
            ],
            "name" : "Sketchfab_model",
            "rotation" : [
                -0.7071068286895752,
                0,
                0,
                0.7071067094802856
            ],
            "translation" : [
                0,
                110.52342987060547,
                0
            ]
        },
        {
            "mesh" : 3,
            "name" : "Cube",
            "translation" : [
                0,
                110.52342987060547,
                0
            ]
        },
        {
            "mesh" : 4,
            "name" : "Sphere",
            "scale" : [
                4.105697154998779,
                4.105697154998779,
                4.105697154998779
            ],
            "translation" : [
                -36.756072998046875,
                134.82919311523438,
                -89.94686126708984
            ]
        },
        {
            "mesh" : 5,
            "name" : "Sphere.001",
            "scale" : [
                4.105697154998779,
                4.105697154998779,
                4.105697154998779
            ],
            "translation" : [
                36.007904052734375,
                135.9925537109375,
                -89.3948745727539
            ]
        },
        {
            "mesh" : 6,
            "name" : "Cube.001",
            "scale" : [
                30.05106544494629,
                2.545780658721924,
                0.9903869032859802
            ],
            "translation" : [
                -0.9426895380020142,
                128.3291473388672,
                -91.95858764648438
            ]
        }
    ],
    "materials" : [
        {
            "doubleSided" : true,
            "name" : "LeafColor",
            "pbrMetallicRoughness" : {
                "baseColorFactor" : [
                    0.19120199978351593,
                    0.27049800753593445,
                    0.05126950144767761,
                    1
                ],
                "metallicFactor" : 0,
                "roughnessFactor" : 0.94682377576828
            }
        },
        {
            "doubleSided" : true,
            "name" : "PeachColor",
            "pbrMetallicRoughness" : {
                "baseColorFactor" : [
                    1,
                    0.22729699313640594,
                    0.07509730011224747,
                    1
                ],
                "metallicFactor" : 0,
                "roughnessFactor" : 0.9148986339569092
            }
        },
        {
            "doubleSided" : true,
            "name" : "StemColor",
            "pbrMetallicRoughness" : {
                "baseColorFactor" : [
                    0.0936352014541626,
                    0.036347199231386185,
                    0.018376199528574944,
                    1
                ],
                "metallicFactor" : 0,
                "roughnessFactor" : 0.9894392490386963
            }
        },
        {
            "doubleSided" : true,
            "name" : "Material",
            "pbrMetallicRoughness" : {
                "baseColorFactor" : [
                    0.800000011920929,
                    0.800000011920929,
                    0.800000011920929,
                    1
                ],
                "metallicFactor" : 0,
                "roughnessFactor" : 0.4000000059604645
            }
        }
    ],
    "meshes" : [
        {
            "name" : "Leaves_LeafColor_0",
            "primitives" : [
                {
                    "attributes" : {
                        "POSITION" : 0,
                        "NORMAL" : 1,
                        "TEXCOORD_0" : 2
                    },
                    "indices" : 3,
                    "material" : 0
                }
            ]
        },
        {
            "name" : "Peach_PeachColor_0",
            "primitives" : [
                {
                    "attributes" : {
                        "POSITION" : 4,
                        "NORMAL" : 5,
                        "TEXCOORD_0" : 6
                    },
                    "indices" : 7,
                    "material" : 1
                }
            ]
        },
        {
            "name" : "stem_StemColor_0",
            "primitives" : [
                {
                    "attributes" : {
                        "POSITION" : 8,
                        "NORMAL" : 9,
                        "TEXCOORD_0" : 10
                    },
                    "indices" : 11,
                    "material" : 2
                }
            ]
        },
        {
            "name" : "Cube",
            "primitives" : [
                {
                    "attributes" : {
                        "POSITION" : 12,
                        "NORMAL" : 13,
                        "TEXCOORD_0" : 14
                    },
                    "indices" : 15,
                    "material" : 3
                }
            ]
        },
        {
            "name" : "Sphere",
            "primitives" : [
                {
                    "attributes" : {
                        "POSITION" : 16,
                        "NORMAL" : 17,
                        "TEXCOORD_0" : 18
                    },
                    "indices" : 19
                }
            ]
        },
        {
            "name" : "Sphere.001",
            "primitives" : [
                {
                    "attributes" : {
                        "POSITION" : 20,
                        "NORMAL" : 21,
                        "TEXCOORD_0" : 22
                    },
                    "indices" : 19
                }
            ]
        },
        {
            "name" : "Cube.001",
            "primitives" : [
                {
                    "attributes" : {
                        "POSITION" : 23,
                        "NORMAL" : 24,
                        "TEXCOORD_0" : 25
                    },
                    "indices" : 26
                }
            ]
        }
    ],
    "accessors" : [
        {
            "bufferView" : 0,
            "componentType" : 5126,
            "count" : 787,
            "max" : [
                3.088676929473877,
                1.7419705390930176,
                -0.7047246694564819
            ],
            "min" : [
                -1.8749539852142334,
                -1.0409464836120605,
                -19.09198570251465
            ],
            "type" : "VEC3"
        },
        {
            "bufferView" : 1,
            "componentType" : 5126,
            "count" : 787,
            "type" : "VEC3"
        },
        {
            "bufferView" : 2,
            "componentType" : 5126,
            "count" : 787,
            "type" : "VEC2"
        },
        {
            "bufferView" : 3,
            "componentType" : 5123,
            "count" : 1656,
            "type" : "SCALAR"
        },
        {
            "bufferView" : 4,
            "componentType" : 5126,
            "count" : 1057,
            "max" : [
                1.0549609661102295,
                0.9278995394706726,
                0.9011713862419128
            ],
            "min" : [
                -1.0541521310806274,
                -0.9811810255050659,
                -1.1146879196166992
            ],
            "type" : "VEC3"
        },
        {
            "bufferView" : 5,
            "componentType" : 5126,
            "count" : 1057,
            "type" : "VEC3"
        },
        {
            "bufferView" : 6,
            "componentType" : 5126,
            "count" : 1057,
            "type" : "VEC2"
        },
        {
            "bufferView" : 7,
            "componentType" : 5123,
            "count" : 3804,
            "type" : "SCALAR"
        },
        {
            "bufferView" : 8,
            "componentType" : 5126,
            "count" : 59707,
            "max" : [
                1.221686601638794,
                0.9956130385398865,
                0.9972806572914124
            ],
            "min" : [
                -0.9969580173492432,
                -1.0499286651611328,
                -1
            ],
            "type" : "VEC3"
        },
        {
            "bufferView" : 9,
            "componentType" : 5126,
            "count" : 59707,
            "type" : "VEC3"
        },
        {
            "bufferView" : 10,
            "componentType" : 5126,
            "count" : 59707,
            "type" : "VEC2"
        },
        {
            "bufferView" : 11,
            "componentType" : 5123,
            "count" : 82926,
            "type" : "SCALAR"
        },
        {
            "bufferView" : 12,
            "componentType" : 5126,
            "count" : 24,
            "max" : [
                1,
                1,
                1
            ],
            "min" : [
                -1,
                -1,
                -1
            ],
            "type" : "VEC3"
        },
        {
            "bufferView" : 13,
            "componentType" : 5126,
            "count" : 24,
            "type" : "VEC3"
        },
        {
            "bufferView" : 14,
            "componentType" : 5126,
            "count" : 24,
            "type" : "VEC2"
        },
        {
            "bufferView" : 15,
            "componentType" : 5123,
            "count" : 36,
            "type" : "SCALAR"
        },
        {
            "bufferView" : 16,
            "componentType" : 5126,
            "count" : 7936,
            "max" : [
                0.9872310161590576,
                0.9975767135620117,
                0.9872307181358337
            ],
            "min" : [
                -0.9872304201126099,
                -0.9975767135620117,
                -0.9872304201126099
            ],
            "type" : "VEC3"
        },
        {
            "bufferView" : 17,
            "componentType" : 5126,
            "count" : 7936,
            "type" : "VEC3"
        },
        {
            "bufferView" : 18,
            "componentType" : 5126,
            "count" : 7936,
            "type" : "VEC2"
        },
        {
            "bufferView" : 19,
            "componentType" : 5123,
            "count" : 11904,
            "type" : "SCALAR"
        },
        {
            "bufferView" : 20,
            "componentType" : 5126,
            "count" : 7936,
            "max" : [
                0.9872310161590576,
                0.9975767135620117,
                0.9872307181358337
            ],
            "min" : [
                -0.9872304201126099,
                -0.9975767135620117,
                -0.9872304201126099
            ],
            "type" : "VEC3"
        },
        {
            "bufferView" : 21,
            "componentType" : 5126,
            "count" : 7936,
            "type" : "VEC3"
        },
        {
            "bufferView" : 22,
            "componentType" : 5126,
            "count" : 7936,
            "type" : "VEC2"
        },
        {
            "bufferView" : 23,
            "componentType" : 5126,
            "count" : 288,
            "max" : [
                0.9598767161369324,
                -0.2796526849269867,
                -2.0086612701416016
            ],
            "min" : [
                -0.9598767161369324,
                -3.741422653198242,
                -8.791352272033691
            ],
            "type" : "VEC3"
        },
        {
            "bufferView" : 24,
            "componentType" : 5126,
            "count" : 288,
            "type" : "VEC3"
        },
        {
            "bufferView" : 25,
            "componentType" : 5126,
            "count" : 288,
            "type" : "VEC2"
        },
        {
            "bufferView" : 26,
            "componentType" : 5123,
            "count" : 432,
            "type" : "SCALAR"
        }
    ],
    "bufferViews" : [
        {
            "buffer" : 0,
            "byteLength" : 9444,
            "byteOffset" : 0
        },
        {
            "buffer" : 0,
            "byteLength" : 9444,
            "byteOffset" : 9444
        },
        {
            "buffer" : 0,
            "byteLength" : 6296,
            "byteOffset" : 18888
        },
        {
            "buffer" : 0,
            "byteLength" : 3312,
            "byteOffset" : 25184
        },
        {
            "buffer" : 0,
            "byteLength" : 12684,
            "byteOffset" : 28496
        },
        {
            "buffer" : 0,
            "byteLength" : 12684,
            "byteOffset" : 41180
        },
        {
            "buffer" : 0,
            "byteLength" : 8456,
            "byteOffset" : 53864
        },
        {
            "buffer" : 0,
            "byteLength" : 7608,
            "byteOffset" : 62320
        },
        {
            "buffer" : 0,
            "byteLength" : 716484,
            "byteOffset" : 69928
        },
        {
            "buffer" : 0,
            "byteLength" : 716484,
            "byteOffset" : 786412
        },
        {
            "buffer" : 0,
            "byteLength" : 477656,
            "byteOffset" : 1502896
        },
        {
            "buffer" : 0,
            "byteLength" : 165852,
            "byteOffset" : 1980552
        },
        {
            "buffer" : 0,
            "byteLength" : 288,
            "byteOffset" : 2146404
        },
        {
            "buffer" : 0,
            "byteLength" : 288,
            "byteOffset" : 2146692
        },
        {
            "buffer" : 0,
            "byteLength" : 192,
            "byteOffset" : 2146980
        },
        {
            "buffer" : 0,
            "byteLength" : 72,
            "byteOffset" : 2147172
        },
        {
            "buffer" : 0,
            "byteLength" : 95232,
            "byteOffset" : 2147244
        },
        {
            "buffer" : 0,
            "byteLength" : 95232,
            "byteOffset" : 2242476
        },
        {
            "buffer" : 0,
            "byteLength" : 63488,
            "byteOffset" : 2337708
        },
        {
            "buffer" : 0,
            "byteLength" : 23808,
            "byteOffset" : 2401196
        },
        {
            "buffer" : 0,
            "byteLength" : 95232,
            "byteOffset" : 2425004
        },
        {
            "buffer" : 0,
            "byteLength" : 95232,
            "byteOffset" : 2520236
        },
        {
            "buffer" : 0,
            "byteLength" : 63488,
            "byteOffset" : 2615468
        },
        {
            "buffer" : 0,
            "byteLength" : 3456,
            "byteOffset" : 2678956
        },
        {
            "buffer" : 0,
            "byteLength" : 3456,
            "byteOffset" : 2682412
        },
        {
            "buffer" : 0,
            "byteLength" : 2304,
            "byteOffset" : 2685868
        },
        {
            "buffer" : 0,
            "byteLength" : 864,
            "byteOffset" : 2688172
        }
    ],
    "buffers" : [
        {
            "byteLength" : 2689036,
            "uri" : "data:application/octet-stream;base64,"
        }
    ]
}
