<svg width="153" height="81" viewBox="0 0 153 81" fill="none" xmlns="http://www.w3.org/2000/svg">
<path d="M22.88 10.96C22.88 12.5867 22.5067 14.08 21.76 15.44C21.0133 16.7733 19.8667 17.8533 18.32 18.68C16.7733 19.5067 14.8533 19.92 12.56 19.92H8.32V30H1.48V1.92H12.56C14.8 1.92 16.6933 2.30667 18.24 3.08C19.7867 3.85333 20.9467 4.92 21.72 6.28C22.4933 7.64 22.88 9.2 22.88 10.96ZM12.04 14.48C13.3467 14.48 14.32 14.1733 14.96 13.56C15.6 12.9467 15.92 12.08 15.92 10.96C15.92 9.84 15.6 8.97333 14.96 8.36C14.32 7.74667 13.3467 7.44 12.04 7.44H8.32V14.48H12.04ZM47.4809 18.48C47.4809 19.12 47.4409 19.7867 47.3609 20.48H31.8809C31.9876 21.8667 32.4276 22.9333 33.2009 23.68C34.0009 24.4 34.9743 24.76 36.1209 24.76C37.8276 24.76 39.0143 24.04 39.6809 22.6H46.9609C46.5876 24.0667 45.9076 25.3867 44.9209 26.56C43.9609 27.7333 42.7476 28.6533 41.2809 29.32C39.8143 29.9867 38.1743 30.32 36.3609 30.32C34.1743 30.32 32.2276 29.8533 30.5209 28.92C28.8143 27.9867 27.4809 26.6533 26.5209 24.92C25.5609 23.1867 25.0809 21.16 25.0809 18.84C25.0809 16.52 25.5476 14.4933 26.4809 12.76C27.4409 11.0267 28.7743 9.69333 30.4809 8.76C32.1876 7.82667 34.1476 7.36 36.3609 7.36C38.5209 7.36 40.4409 7.81333 42.1209 8.72C43.8009 9.62667 45.1076 10.92 46.0409 12.6C47.0009 14.28 47.4809 16.24 47.4809 18.48ZM40.4809 16.68C40.4809 15.5067 40.0809 14.5733 39.2809 13.88C38.4809 13.1867 37.4809 12.84 36.2809 12.84C35.1343 12.84 34.1609 13.1733 33.3609 13.84C32.5876 14.5067 32.1076 15.4533 31.9209 16.68H40.4809ZM49.7294 18.8C49.7294 16.5067 50.156 14.4933 51.0094 12.76C51.8894 11.0267 53.076 9.69333 54.5694 8.76C56.0627 7.82667 57.7294 7.36 59.5694 7.36C61.1427 7.36 62.516 7.68 63.6894 8.32C64.8894 8.96 65.8094 9.8 66.4494 10.84V7.68H73.2894V30H66.4494V26.84C65.7827 27.88 64.8494 28.72 63.6494 29.36C62.476 30 61.1027 30.32 59.5294 30.32C57.716 30.32 56.0627 29.8533 54.5694 28.92C53.076 27.96 51.8894 26.6133 51.0094 24.88C50.156 23.12 49.7294 21.0933 49.7294 18.8ZM66.4494 18.84C66.4494 17.1333 65.9694 15.7867 65.0094 14.8C64.076 13.8133 62.9294 13.32 61.5694 13.32C60.2094 13.32 59.0494 13.8133 58.0894 14.8C57.156 15.76 56.6894 17.0933 56.6894 18.8C56.6894 20.5067 57.156 21.8667 58.0894 22.88C59.0494 23.8667 60.2094 24.36 61.5694 24.36C62.9294 24.36 64.076 23.8667 65.0094 22.88C65.9694 21.8933 66.4494 20.5467 66.4494 18.84ZM76.8778 18.84C76.8778 16.52 77.3445 14.4933 78.2778 12.76C79.2378 11.0267 80.5578 9.69333 82.2378 8.76C83.9445 7.82667 85.8911 7.36 88.0778 7.36C90.8778 7.36 93.2111 8.09333 95.0778 9.56C96.9711 11.0267 98.2111 13.0933 98.7978 15.76H91.5178C90.9045 14.0533 89.7178 13.2 87.9578 13.2C86.7045 13.2 85.7045 13.6933 84.9578 14.68C84.2111 15.64 83.8378 17.0267 83.8378 18.84C83.8378 20.6533 84.2111 22.0533 84.9578 23.04C85.7045 24 86.7045 24.48 87.9578 24.48C89.7178 24.48 90.9045 23.6267 91.5178 21.92H98.7978C98.2111 24.5333 96.9711 26.5867 95.0778 28.08C93.1845 29.5733 90.8511 30.32 88.0778 30.32C85.8911 30.32 83.9445 29.8533 82.2378 28.92C80.5578 27.9867 79.2378 26.6533 78.2778 24.92C77.3445 23.1867 76.8778 21.16 76.8778 18.84ZM116.177 7.44C118.737 7.44 120.79 8.29333 122.337 10C123.883 11.68 124.657 14 124.657 16.96V30H117.857V17.88C117.857 16.3867 117.47 15.2267 116.697 14.4C115.923 13.5733 114.883 13.16 113.577 13.16C112.27 13.16 111.23 13.5733 110.457 14.4C109.683 15.2267 109.297 16.3867 109.297 17.88V30H102.457V0.4H109.297V10.68C109.99 9.69333 110.937 8.90666 112.137 8.32C113.337 7.73333 114.683 7.44 116.177 7.44ZM152.21 7.68L138.21 40.6H130.85L135.97 29.24L126.89 7.68H134.53L139.69 21.64L144.81 7.68H152.21ZM18.56 63.8H6.4L4.16 70H0.32L10.4 42.28H14.6L24.64 70H20.8L18.56 63.8ZM17.52 60.84L12.48 46.76L7.44 60.84H17.52ZM38.0731 47.72C39.9665 47.72 41.6198 48.1333 43.0331 48.96C44.4731 49.7867 45.5398 50.8267 46.2331 52.08V48.08H49.9131V70.48C49.9131 72.48 49.4865 74.2533 48.6331 75.8C47.7798 77.3733 46.5531 78.6 44.9531 79.48C43.3798 80.36 41.5398 80.8 39.4331 80.8C36.5531 80.8 34.1531 80.12 32.2331 78.76C30.3131 77.4 29.1798 75.5467 28.8331 73.2H32.4331C32.8331 74.5333 33.6598 75.6 34.9131 76.4C36.1665 77.2267 37.6731 77.64 39.4331 77.64C41.4331 77.64 43.0598 77.0133 44.3131 75.76C45.5931 74.5067 46.2331 72.7467 46.2331 70.48V65.88C45.5131 67.16 44.4465 68.2267 43.0331 69.08C41.6198 69.9333 39.9665 70.36 38.0731 70.36C36.1265 70.36 34.3531 69.88 32.7531 68.92C31.1798 67.96 29.9398 66.6133 29.0331 64.88C28.1265 63.1467 27.6731 61.1733 27.6731 58.96C27.6731 56.72 28.1265 54.76 29.0331 53.08C29.9398 51.3733 31.1798 50.0533 32.7531 49.12C34.3531 48.1867 36.1265 47.72 38.0731 47.72ZM46.2331 59C46.2331 57.3467 45.8998 55.9067 45.2331 54.68C44.5665 53.4533 43.6598 52.52 42.5131 51.88C41.3931 51.2133 40.1531 50.88 38.7931 50.88C37.4331 50.88 36.1931 51.2 35.0731 51.84C33.9531 52.48 33.0598 53.4133 32.3931 54.64C31.7265 55.8667 31.3931 57.3067 31.3931 58.96C31.3931 60.64 31.7265 62.1067 32.3931 63.36C33.0598 64.5867 33.9531 65.5333 35.0731 66.2C36.1931 66.84 37.4331 67.16 38.7931 67.16C40.1531 67.16 41.3931 66.84 42.5131 66.2C43.6598 65.5333 44.5665 64.5867 45.2331 63.36C45.8998 62.1067 46.2331 60.6533 46.2331 59ZM76.0644 58.2C76.0644 58.8933 76.0244 59.6267 75.9444 60.4H58.4244C58.5577 62.56 59.291 64.2533 60.6244 65.48C61.9844 66.68 63.6244 67.28 65.5444 67.28C67.1177 67.28 68.4244 66.92 69.4644 66.2C70.531 65.4533 71.2777 64.4667 71.7044 63.24H75.6244C75.0377 65.3467 73.8644 67.0667 72.1044 68.4C70.3444 69.7067 68.1577 70.36 65.5444 70.36C63.4644 70.36 61.5977 69.8933 59.9444 68.96C58.3177 68.0267 57.0377 66.7067 56.1044 65C55.171 63.2667 54.7044 61.2667 54.7044 59C54.7044 56.7333 55.1577 54.7467 56.0644 53.04C56.971 51.3333 58.2377 50.0267 59.8644 49.12C61.5177 48.1867 63.411 47.72 65.5444 47.72C67.6244 47.72 69.4644 48.1733 71.0644 49.08C72.6644 49.9867 73.891 51.24 74.7444 52.84C75.6244 54.4133 76.0644 56.2 76.0644 58.2ZM72.3044 57.44C72.3044 56.0533 71.9977 54.8667 71.3844 53.88C70.771 52.8667 69.931 52.1067 68.8644 51.6C67.8244 51.0667 66.6644 50.8 65.3844 50.8C63.5444 50.8 61.971 51.3867 60.6644 52.56C59.3844 53.7333 58.651 55.36 58.4644 57.44H72.3044ZM91.5491 47.68C94.2157 47.68 96.3757 48.4933 98.0291 50.12C99.6824 51.72 100.509 54.04 100.509 57.08V70H96.9091V57.6C96.9091 55.4133 96.3624 53.7467 95.2691 52.6C94.1757 51.4267 92.6824 50.84 90.7891 50.84C88.8691 50.84 87.3357 51.44 86.1891 52.64C85.0691 53.84 84.5091 55.5867 84.5091 57.88V70H80.8691V48.08H84.5091V51.2C85.2291 50.08 86.2024 49.2133 87.4291 48.6C88.6824 47.9867 90.0557 47.68 91.5491 47.68ZM105.095 59C105.095 56.7333 105.548 54.76 106.455 53.08C107.362 51.3733 108.615 50.0533 110.215 49.12C111.842 48.1867 113.695 47.72 115.775 47.72C118.468 47.72 120.682 48.3733 122.415 49.68C124.175 50.9867 125.335 52.8 125.895 55.12H121.975C121.602 53.7867 120.868 52.7333 119.775 51.96C118.708 51.1867 117.375 50.8 115.775 50.8C113.695 50.8 112.015 51.52 110.735 52.96C109.455 54.3733 108.815 56.3867 108.815 59C108.815 61.64 109.455 63.68 110.735 65.12C112.015 66.56 113.695 67.28 115.775 67.28C117.375 67.28 118.708 66.9067 119.775 66.16C120.842 65.4133 121.575 64.3467 121.975 62.96H125.895C125.308 65.2 124.135 67 122.375 68.36C120.615 69.6933 118.415 70.36 115.775 70.36C113.695 70.36 111.842 69.8933 110.215 68.96C108.615 68.0267 107.362 66.7067 106.455 65C105.548 63.2933 105.095 61.2933 105.095 59ZM149.632 48.08L136.432 80.32H132.672L136.992 69.76L128.152 48.08H132.192L139.072 65.84L145.872 48.08H149.632Z" fill="white"/>
</svg>
